# xmcd
#
# Track frame offsets:
#	150
#	11102
#	23657
#	36205
#	49270
#	62577
#	76240
#	89535
#	103057
#	115625
#	129120
#	142192
#	156670
#	171257
#	185862
#	200280
#	212912
#	226415
#	239835
#
# Disc length: 3374 seconds
#
# Revision: 1
# Processed by: cddbd v1.5.2PL0 Copyright (c) Steve Scherf et al.
# Submitted via: audiograbber 1.83.01
#
DISCID=130d2c13
DTITLE=Doctor Clayton and his Buddy - 1935-1947
DYEAR=1989
DGENRE=Blues
TTITLE0=Peter J. Clayton (Doctor Clayton) - Peter's Blues
TTITLE1=Peter J. Clayton (Doctor Clayton) - Yo Yo Jive
TTITLE2=Peter J. Clayton (Doctor Clayton) - Roaming Gambler
TTITLE3=Peter J. Clayton (Doctor Clayton) - Slick Man Blues
TTITLE4=Peter J. Clayton (Doctor Clayton) - False Love Blues
TTITLE5=Peter J. Clayton (Doctor Clayton) - Something Going On Wrong
TTITLE6=Peter J. Clayton (Doctor Clayton) - Black Snake Blues
TTITLE7=Peter J. Clayton (Doctor Clayton) - '41 Blues
TTITLE8=Peter J. Clayton (Doctor Clayton) - Love Is Gone
TTITLE9=Peter J. Clayton (Doctor Clayton) - Confessin' the Blues
TTITLE10=Peter J. Clayton (Doctor Clayton) - Streamline Love
TTITLE11=Doctor Clayton's Buddy (Sunnyland Slim) - Farewell Little Girl
TTITLE12=Doctor Clayton's Buddy (Sunnyland Slim) - Broke and Hungry
TTITLE13=Doctor Clayton's Buddy (Sunnyland Slim) - Illinois Central
TTITLE14=Doctor Clayton's Buddy (Sunnyland Slim) - Nappy Head Woman
TTITLE15=Doctor Clayton's Buddy (Sunnyland Slim) - Across the Hall Blues
TTITLE16=Doctor Clayton's Buddy (Sunnyland Slim) - Walking With the Blues
TTITLE17=Doctor Clayton's Buddy (Sunnyland Slim) - Sweet Lucy Blues
TTITLE18=Doctor Clayton's Buddy (Sunnyland Slim) - No Whiskey Blues
EXTD=
EXTT0=
EXTT1=
EXTT2=
EXTT3=
EXTT4=
EXTT5=
EXTT6=
EXTT7=
EXTT8=
EXTT9=
EXTT10=
EXTT11=
EXTT12=
EXTT13=
EXTT14=
EXTT15=
EXTT16=
EXTT17=
EXTT18=
PLAYORDER=
